# xmcd
# 
# Track frame offsets:
#     150
#     18995
#     38061
#     53038
#     72326
#     97450
#     114910
#     130479
#     152951
#     171937
# 
# Disc length: 2798
# 
# Revision: 6
# Processed by: cddbd v1.5.2PL0 Copyright (c) Steve Scherf et al.
# Submitted via: fre:ac v1.0.31
# 
DISCID=8a0aec0a
DTITLE=Soulsavers - It's Not How Far You Fall, It's The Way You Land
DYEAR=2007
DGENRE=Alternative
TTITLE0=Revival
TTITLE1=Ghosts Of You And Me
TTITLE2=Paper Money
TTITLE3=Ask The Dust
TTITLE4=Spiritual
TTITLE5=Kingdoms Of Rain
TTITLE6=Through My Sails
TTITLE7=Arizona Bay
TTITLE8=Jesus Of Nothing
TTITLE9=No Expectations - End Title Theme
EXTD=
EXTT0=
EXTT1=
EXTT2=
EXTT3=
EXTT4=
EXTT5=
EXTT6=
EXTT7=
EXTT8=
EXTT9=
PLAYORDER=
